<?xml version="1.0" encoding="UTF-8" standalone="no"?>
<!-- Created with Inkscape (http://www.inkscape.org/) -->

<svg
   xmlns:dc="http://purl.org/dc/elements/1.1/"
   xmlns:cc="http://creativecommons.org/ns#"
   xmlns:rdf="http://www.w3.org/1999/02/22-rdf-syntax-ns#"
   xmlns:svg="http://www.w3.org/2000/svg"
   xmlns="http://www.w3.org/2000/svg"
   xmlns:sodipodi="http://sodipodi.sourceforge.net/DTD/sodipodi-0.dtd"
   xmlns:inkscape="http://www.inkscape.org/namespaces/inkscape"
   width="128"
   height="128"
   viewBox="0 0 128 128"
   id="svg2"
   version="1.1"
   inkscape:version="0.91 r13725"
   sodipodi:docname="ReliefValve.svg">
  <defs
     id="defs4" />
  <sodipodi:namedview
     id="base"
     pagecolor="#ffffff"
     bordercolor="#666666"
     borderopacity="1.0"
     inkscape:pageopacity="0.0"
     inkscape:pageshadow="2"
     inkscape:zoom="0.98994949"
     inkscape:cx="276.51862"
     inkscape:cy="206.02396"
     inkscape:document-units="px"
     inkscape:current-layer="layer1"
     showgrid="false"
     units="px"
     inkscape:window-width="1920"
     inkscape:window-height="1017"
     inkscape:window-x="1016"
     inkscape:window-y="-8"
     inkscape:window-maximized="1" />
  <metadata
     id="metadata7">
    <rdf:RDF>
      <cc:Work
         rdf:about="">
        <dc:format>image/svg+xml</dc:format>
        <dc:type
           rdf:resource="http://purl.org/dc/dcmitype/StillImage" />
        <dc:title></dc:title>
      </cc:Work>
    </rdf:RDF>
  </metadata>
  <g
     inkscape:label="Layer 1"
     inkscape:groupmode="layer"
     id="layer1"
     transform="translate(0,-924.36216)">
    <g
       style="font-style:normal;font-weight:normal;font-size:40px;line-height:125%;font-family:sans-serif;letter-spacing:0px;word-spacing:0px;fill:#000000;fill-opacity:1;stroke:none;stroke-width:1px;stroke-linecap:butt;stroke-linejoin:miter;stroke-opacity:1"
       id="text3336">
      <path
         d="m 42.928223,990.4057 q 2.592773,0.9668 5.009765,4.13086 2.416992,3.16406 4.87793,8.70114 l 8.129883,17.9297 -8.613281,0 -7.558594,-16.831 q -2.900391,-6.59183 -5.668946,-8.74515 -2.724609,-2.15332 -7.470703,-2.15332 l -8.701172,0 0,27.72947 -7.998046,0 0,-65.61033 18.017578,0 q 10.151367,0 15.117187,4.70215 4.965821,4.70214 4.965821,14.19433 0,6.19629 -2.592774,10.28321 -2.548828,4.08691 -7.514648,5.66894 z m -19.995118,-27.55371 0,23.29102 10.019532,0 q 5.800781,0 8.745117,-2.94434 2.944336,-2.98828 2.944336,-8.74512 0,-5.75683 -2.944336,-8.65722 -2.944336,-2.94434 -8.745117,-2.94434 l -10.019532,0 z"
         style="font-size:90px"
         id="path3341" />
      <path
         d="m 81.468262,1021.1674 -22.543946,-65.61033 8.34961,0 18.720703,55.23923 18.764651,-55.23923 8.30566,0 -22.499999,65.61033 -9.096679,0 z"
         style="font-size:90px"
         id="path3343" />
    </g>
  </g>
</svg>
